<?xml version="1.0" standalone="no"?>
<!DOCTYPE svg PUBLIC "-//W3C//DTD SVG 20010904//EN"
 "http://www.w3.org/TR/2001/REC-SVG-20010904/DTD/svg10.dtd">
<svg version="1.0" xmlns="http://www.w3.org/2000/svg"
 width="1200.000000pt" height="675.000000pt" viewBox="0 0 1200.000000 675.000000"
 preserveAspectRatio="xMidYMid meet">

<g transform="translate(0.000000,675.000000) scale(0.100000,-0.100000)"
fill="#000000" stroke="none">
<path d="M0 6490 l0 -260 240 0 c214 0 240 2 232 15 -4 9 -57 68 -118 133
-109 117 -89 103 89 -60 l94 -88 179 -2 179 -2 -155 -6 -155 -6 168 -2 c184
-2 171 -5 294 70 43 27 89 46 183 77 130 42 182 49 337 46 187 -4 178 -3 243
-21 160 -45 198 -61 345 -146 l48 -28 1491 0 1492 0 35 26 c178 133 431 130
608 -8 22 -17 46 -18 340 -16 l316 3 -305 5 -305 5 308 3 c273 2 307 4 299 17
-4 9 -57 68 -118 133 -109 117 -89 103 89 -60 l94 -88 2716 0 2716 0 4 -47 c2
-27 4 80 5 237 1 157 5 295 8 308 l6 22 -6001 0 -6001 0 0 -260z m4438 -267
c-412 -2 -1084 -2 -1495 0 -412 1 -75 2 747 2 822 0 1159 -1 748 -2z"/>
<path d="M118 6213 c68 -2 176 -2 240 0 64 1 9 3 -123 3 -132 0 -185 -2 -117
-3z"/>
<path d="M7937 6213 c738 -2 1948 -2 2690 0 741 1 138 2 -1342 2 -1479 0
-2086 -1 -1348 -2z"/>
<path d="M8295 5611 c-41 -10 -66 -25 -94 -55 l-24 -26 -33 21 c-36 22 -138
37 -147 22 -3 -5 14 -15 37 -22 50 -14 110 -61 137 -105 16 -27 19 -28 25 -10
19 59 31 77 75 119 26 25 53 45 59 45 5 0 10 5 10 10 0 11 -2 11 -45 1z"/>
<path d="M4000 5329 c-13 -6 -33 -17 -42 -26 -17 -15 -20 -15 -37 1 -11 10
-39 20 -63 23 l-43 5 40 -24 c22 -13 51 -41 65 -61 l24 -38 19 36 c10 20 38
49 64 66 40 24 43 29 22 28 -13 0 -35 -5 -49 -10z"/>
<path d="M2579 5261 c-27 -17 -51 -41 -59 -60 -11 -27 -17 -31 -38 -26 -61 15
-81 16 -123 4 l-44 -12 40 -9 c76 -16 110 -30 148 -60 32 -25 37 -27 37 -10 0
43 32 121 66 160 42 49 35 53 -27 13z"/>
<path d="M8529 5244 c42 -36 72 -85 85 -137 l7 -28 32 34 c36 38 94 71 147 82
l35 8 -30 9 c-36 10 -97 3 -135 -17 -26 -13 -28 -12 -49 15 -23 31 -88 70
-117 70 -12 0 -4 -12 25 -36z"/>
<path d="M3629 4980 c-41 -21 -89 -74 -89 -96 0 -12 -4 -12 -21 -4 -25 14
-115 15 -149 2 -23 -9 -20 -10 25 -17 62 -9 124 -35 149 -64 26 -29 31 -27 33
19 3 46 34 113 71 153 30 32 29 32 -19 7z"/>
<path d="M7030 4479 c0 -5 6 -9 14 -9 20 0 75 -48 96 -83 l18 -29 18 37 c10
23 36 50 63 67 l46 30 -38 -5 c-20 -3 -50 -15 -66 -26 -26 -19 -29 -19 -51 -4
-26 19 -100 35 -100 22z"/>
<path d="M470 4386 c0 -16 132 -80 211 -101 52 -15 105 -30 118 -34 21 -6 16
-10 -38 -31 l-62 -25 33 -28 c48 -40 122 -73 224 -98 49 -12 92 -25 97 -28 4
-4 -18 -18 -48 -30 l-56 -23 21 -23 c32 -34 133 -80 238 -106 50 -13 92 -26
92 -29 0 -4 -25 -17 -56 -30 l-56 -23 29 -23 c47 -38 129 -74 233 -101 55 -14
97 -29 95 -33 -3 -5 -27 -16 -55 -26 -27 -10 -50 -21 -50 -24 0 -4 38 -37 84
-75 47 -38 83 -71 81 -74 -3 -2 -10 1 -17 7 -18 14 -183 58 -298 79 -134 24
-406 24 -518 -1 -194 -42 -422 -139 -592 -252 -97 -64 -173 -124 -167 -131 13
-13 145 24 241 68 60 27 110 49 111 49 2 0 -10 -24 -26 -52 -16 -29 -29 -56
-29 -60 0 -27 164 13 277 67 53 25 97 45 99 45 3 0 -9 -27 -26 -60 l-30 -60
22 0 c56 1 167 33 255 75 53 25 97 45 99 45 3 0 -10 -28 -27 -61 l-31 -61 59
6 c77 9 141 30 235 77 43 22 80 39 83 39 3 0 -8 -27 -25 -60 l-30 -60 102 -1
c96 0 101 -1 68 -13 -76 -29 -243 -118 -346 -187 -294 -197 -500 -506 -609
-912 -36 -131 -34 -140 16 -92 27 27 60 80 99 159 60 123 61 123 76 43 3 -20
10 -40 15 -43 21 -13 102 93 157 205 l57 115 12 -39 c6 -22 12 -50 12 -62 1
-13 5 -23 10 -23 25 0 108 114 159 220 l56 115 15 -62 c8 -35 18 -63 22 -63
23 0 107 117 152 212 28 60 54 108 57 108 3 0 12 -27 19 -61 l12 -60 52 43
c107 91 342 284 354 291 6 4 4 -12 -7 -41 -57 -149 -100 -392 -100 -562 0
-180 44 -414 120 -635 44 -130 72 -293 64 -380 -7 -78 -27 -187 -43 -226 -11
-30 -17 -30 -131 -2 l-65 16 65 66 c66 65 110 141 113 190 2 24 -2 27 -52 35
-69 12 -153 -4 -238 -44 -36 -16 -67 -30 -68 -30 -2 0 1 17 7 38 6 20 11 78
11 127 1 71 -4 103 -24 155 -24 64 -25 65 -64 68 -105 9 -246 -51 -340 -144
l-63 -61 -11 36 c-14 47 -69 131 -86 131 -21 0 -81 -73 -113 -141 -55 -113
-63 -251 -21 -364 11 -27 19 -53 19 -57 0 -5 -182 -8 -405 -8 l-405 0 0 -590
0 -590 6000 0 6000 0 0 360 0 360 -500 0 c-275 0 -500 2 -500 5 0 3 17 28 37
55 l37 50 458 0 458 0 0 252 0 251 -207 -7 c-115 -4 -229 -10 -255 -14 l-48
-7 113 -120 112 -120 -125 118 -125 118 -65 -6 c-36 -3 -107 -13 -158 -21
l-93 -16 -23 25 c-41 44 -215 96 -323 97 -151 0 -325 -87 -393 -199 -14 -22
-28 -41 -31 -41 -3 0 -14 18 -24 39 -9 21 -37 58 -61 82 -53 52 -59 48 -112
-61 l-37 -77 -57 58 -56 57 45 134 c102 304 133 560 99 818 -16 119 -55 281
-91 376 -14 37 -19 62 -12 57 7 -4 105 -85 219 -180 114 -95 209 -169 211
-165 3 4 10 33 17 66 6 32 15 54 20 50 4 -5 24 -47 45 -94 21 -47 51 -104 67
-128 32 -47 94 -112 107 -112 4 0 14 28 23 63 l14 62 56 -115 c37 -79 71 -133
107 -172 29 -32 56 -58 61 -58 4 0 13 27 20 60 7 33 16 60 19 60 3 0 24 -39
45 -87 47 -106 95 -181 144 -224 l37 -33 12 40 c6 21 12 49 12 62 1 12 4 22 9
22 4 0 29 -48 57 -107 36 -78 64 -122 103 -162 l53 -56 -7 45 c-17 120 -101
357 -179 507 -135 260 -281 422 -525 583 -93 61 -285 159 -345 176 -22 7 -1
10 82 12 l113 3 -30 59 c-17 33 -29 60 -26 60 2 0 50 -22 107 -49 114 -53 174
-71 244 -71 l45 0 -31 55 c-17 31 -29 58 -27 61 3 2 52 -18 109 -45 57 -28
124 -55 149 -60 48 -11 130 -15 130 -6 0 3 -12 28 -26 56 -14 28 -23 53 -21
56 3 2 46 -16 96 -42 50 -25 117 -52 148 -60 56 -15 143 -20 143 -10 0 3 -12
28 -26 56 -14 28 -24 53 -22 55 2 2 51 -19 108 -46 105 -50 188 -74 237 -68
27 3 25 6 -53 83 -197 194 -446 323 -715 371 -137 25 -364 23 -496 -5 -113
-24 -247 -68 -338 -113 l-60 -29 35 33 c20 18 60 54 90 79 l55 47 -65 29 -64
29 104 27 c111 29 234 83 265 117 19 22 21 20 -85 62 -22 9 -11 14 90 42 129
36 189 62 240 105 l35 29 -25 10 c-14 5 -43 17 -65 27 l-40 17 108 29 c125 33
175 54 237 99 l45 33 -65 30 -65 30 105 27 c112 29 183 56 231 91 49 35 25 42
-107 29 -320 -29 -614 -125 -827 -269 -222 -150 -459 -425 -534 -621 -17 -47
-32 -79 -33 -72 -1 39 -74 189 -127 263 -252 348 -530 541 -922 639 -147 37
-300 60 -401 59 l-75 0 25 -21 c40 -34 138 -74 243 -99 53 -12 97 -26 97 -29
0 -3 -27 -16 -60 -29 -54 -22 -59 -26 -46 -40 35 -38 128 -82 236 -111 63 -17
120 -32 125 -34 6 -2 -18 -16 -53 -31 -58 -26 -61 -29 -47 -45 30 -34 133 -80
251 -114 105 -30 116 -35 94 -44 -14 -5 -43 -17 -65 -27 l-40 -17 33 -27 c52
-44 130 -78 248 -107 l109 -28 -65 -29 -64 -29 35 -32 c19 -17 59 -53 89 -79
41 -35 47 -44 25 -33 -44 20 -225 64 -340 81 -130 19 -367 19 -479 0 -237 -41
-528 -173 -752 -341 l-89 -66 61 6 c64 6 106 20 237 80 42 19 77 33 77 30 0
-2 -11 -27 -25 -54 -14 -27 -25 -52 -25 -55 0 -10 87 -5 142 10 30 8 97 35
148 60 51 25 95 43 98 41 2 -3 -10 -30 -27 -61 l-31 -55 48 0 c70 0 150 24
253 75 50 26 93 44 95 42 2 -2 -10 -29 -27 -60 l-31 -57 49 0 c71 0 151 24
253 75 49 25 92 45 95 45 3 0 -8 -27 -25 -60 l-30 -60 107 0 c58 0 104 -3 100
-6 -3 -3 -47 -25 -99 -48 -207 -93 -404 -230 -540 -375 -178 -189 -323 -467
-398 -764 -15 -59 -30 -111 -35 -115 -4 -4 -5 25 -1 63 10 109 13 162 9 136
-3 -15 -7 -20 -12 -13 -5 8 -110 12 -380 12 -204 1 -383 5 -397 10 -16 7 -24
6 -24 -1 0 -6 -6 -9 -13 -6 -8 3 -43 -1 -78 -8 -40 -9 -140 -14 -269 -15
l-205 0 -32 -32 c-31 -30 -32 -31 -58 -14 -16 10 -24 23 -21 32 4 9 -2 14 -16
14 -20 0 -18 -4 16 -39 33 -34 37 -43 34 -82 l-3 -44 -86 82 -85 83 -817 2
c-449 2 -817 -1 -817 -5 0 -4 7 -10 15 -13 8 -4 15 -12 15 -20 0 -12 94 -14
603 -14 627 0 769 -7 922 -42 130 -30 203 -57 355 -131 140 -69 252 -106 405
-135 76 -14 156 -17 525 -17 393 1 451 3 599 23 441 60 744 153 1069 329 133
72 133 72 -437 73 -266 0 -482 -2 -479 -5 3 -3 222 -5 486 -5 296 0 483 -3
487 -9 9 -15 -41 -16 -545 -11 -412 4 -478 3 -495 -10 -11 -8 7 15 41 51 47
51 71 90 110 177 27 61 52 112 55 112 4 0 12 -27 18 -60 7 -33 16 -60 20 -60
5 0 33 26 62 58 36 39 70 93 107 172 l56 115 14 -62 c9 -35 19 -63 23 -63 13
0 75 65 107 112 16 24 46 81 67 128 21 47 41 89 45 93 7 8 30 -75 30 -108 0
-8 2 -15 5 -15 5 0 399 326 452 373 l22 19 19 -38 c29 -56 79 -225 96 -324 35
-199 29 -389 -18 -565 -41 -154 -142 -420 -157 -416 -62 16 -170 33 -182 28
-45 -17 -82 -244 -58 -356 6 -30 10 -55 9 -57 -2 -1 -30 10 -63 26 -87 42
-168 58 -248 49 -38 -3 -70 -9 -73 -12 -3 -2 4 -30 14 -62 l20 -57 -71 68
c-78 77 -78 75 5 -48 32 -49 57 -88 54 -88 -2 0 -53 30 -112 66 -60 36 -125
76 -144 87 l-35 20 25 -29 c13 -16 58 -64 100 -107 81 -84 80 -86 -22 -51 -52
18 -48 9 10 -20 112 -58 111 -58 -143 -51 -624 16 -1214 83 -1747 200 -609
134 -945 185 -1558 236 -91 8 -669 13 -1787 16 -909 2 -1653 6 -1653 9 0 3 18
32 40 64 22 32 40 62 40 65 0 4 -23 -14 -52 -39 -29 -25 -54 -44 -56 -42 -2 3
8 36 22 75 14 39 23 71 21 71 -3 0 -25 -40 -50 -89 -24 -49 -50 -93 -56 -97
-7 -4 -20 2 -31 16 -14 17 -18 40 -18 105 0 114 -17 274 -40 370 -10 45 -48
162 -83 260 -73 203 -93 281 -108 426 -18 184 18 427 91 603 l32 77 47 -38
c25 -21 126 -104 223 -185 98 -81 179 -144 182 -140 2 4 7 25 11 47 14 74 20
71 78 -48 73 -149 167 -250 167 -179 0 9 5 34 11 55 l10 38 59 -118 c43 -86
72 -131 109 -167 l50 -49 12 62 c14 65 23 75 35 39 22 -70 92 -195 136 -243
28 -30 54 -55 58 -55 5 0 15 28 23 62 13 58 15 61 24 38 45 -106 100 -206 139
-249 26 -29 48 -50 50 -48 2 2 -11 60 -30 128 -148 534 -420 861 -896 1076
l-95 43 103 0 c56 0 102 2 102 5 0 3 -11 28 -25 55 -14 27 -25 51 -25 54 0 3
43 -15 95 -40 106 -51 275 -93 275 -69 0 3 -11 28 -25 55 -14 27 -25 51 -25
54 0 2 48 -18 108 -45 98 -44 243 -82 258 -66 3 3 -6 28 -20 56 -14 28 -26 52
-26 55 0 3 48 -17 108 -44 101 -46 243 -83 259 -67 3 4 -6 30 -21 58 -16 28
-26 52 -24 55 3 2 47 -17 99 -42 85 -42 216 -80 242 -71 14 4 -90 84 -195 149
-182 113 -371 190 -562 229 -125 25 -356 28 -497 5 -102 -17 -280 -60 -310
-77 -36 -19 -19 -1 61 66 44 37 80 70 80 75 0 4 -21 15 -47 25 -27 10 -51 21
-56 24 -4 4 34 18 85 30 101 26 196 66 242 104 l30 24 -48 22 c-27 11 -52 21
-57 21 -5 0 -9 4 -9 9 0 5 17 12 38 16 82 15 220 67 271 101 l54 37 -58 23
c-32 13 -60 26 -62 28 -3 2 22 12 54 21 165 47 195 58 247 92 31 21 56 40 56
44 0 3 -21 14 -47 24 -27 10 -52 21 -56 25 -5 4 29 17 75 29 116 30 157 46
214 83 45 30 47 33 24 36 -13 2 -74 -1 -135 -7 -496 -52 -843 -237 -1124 -600
-90 -117 -117 -164 -146 -249 -18 -51 -25 -62 -30 -47 -53 161 -151 303 -324
475 -205 203 -418 316 -722 384 -151 33 -399 59 -399 42z m8185 -2711 c7 -30
9 -53 4 -49 -5 3 -9 12 -9 20 0 8 -4 14 -10 14 -5 0 -9 -6 -7 -12 1 -7 -6 -12
-15 -12 -10 1 -18 -1 -18 -5 0 -4 -7 -16 -15 -27 -12 -15 -12 -11 1 18 10 20
22 34 27 31 6 -3 7 -1 3 6 -7 11 14 84 22 76 2 -2 10 -29 17 -60z"/>
<path d="M5348 4014 c91 -78 166 -211 178 -319 l7 -55 58 55 c71 68 159 111
276 134 l88 18 -40 12 c-105 31 -231 20 -300 -25 -22 -14 -24 -13 -53 39 -37
66 -88 111 -166 148 -82 39 -98 36 -48 -7z"/>
<path d="M5101 3723 c-24 -9 -66 -37 -93 -63 l-50 -48 -47 29 c-41 26 -122 48
-158 43 -7 -1 -28 -2 -45 -3 -32 -2 -31 -3 18 -20 109 -40 176 -86 223 -158
25 -38 32 -43 36 -27 30 96 89 176 169 230 49 33 50 34 21 33 -17 0 -50 -8
-74 -16z"/>
<path d="M8441 1684 c0 -11 3 -14 6 -6 3 7 2 16 -1 19 -3 4 -6 -2 -5 -13z"/>
<path d="M3048 1653 c6 -2 18 -2 25 0 6 3 1 5 -13 5 -14 0 -19 -2 -12 -5z"/>
<path d="M3593 1653 c247 -2 647 -2 890 0 243 1 42 2 -448 2 -490 0 -688 -1
-442 -2z"/>
<path d="M7830 1653 c316 -7 590 -7 590 0 0 4 -161 6 -357 5 -197 -1 -302 -4
-233 -5z"/>
<path d="M3098 1643 c6 -2 18 -2 25 0 6 3 1 5 -13 5 -14 0 -19 -2 -12 -5z"/>
<path d="M3210 1625 c41 -8 154 -25 250 -36 163 -21 228 -23 950 -26 l775 -4
-40 35 c-22 20 -49 36 -60 36 -11 1 -414 0 -895 -1 -967 -1 -900 -2 -990 5
l-65 5 75 -14z"/>
</g>
</svg>
